PathFileType	4	(X/Y/Z)	Patient4_TMGait_0pt5_01_left_06.trc.trc
DataRate	CameraRate	NumFrames	NumMarkers	Units	OrigDataRate	OrigDataStartFrame	OrigNumFrames
71.065989847716	71.065989847716	4	33	mm	71.065989847716	89	       141
Frame#	Time	L.ASIS			Sacral			L.Shoulder			Chest			R.Shoulder			Neck			R.ASIS			R.Thigh.Superior			R.Thigh.Lateral			R.Thigh.Inferior			R.Patella			L.Thigh.Superior			L.Thigh.Lateral			L.Thigh.Inferior			L.Patella			L.Shank.Superior			L.Shank.Lateral			L.Shank.Inferior			R.Shank.Superior			R.Shank.Lateral			R.Shank.Inferior			R.Heel			R.Midfoot.Superior			R.Midfoot.Lateral			R.Toe			L.Heel			L.Midfoot.Lateral			L.Midfoot.Superior			L.Toe			L.Elbow			L.Wrist			R.Elbow			R.Wrist			
		X1	Y1	Z1	X2	Y2	Z2	X3	Y3	Z3	X4	Y4	Z4	X5	Y5	Z5	X6	Y6	Z6	X7	Y7	Z7	X8	Y8	Z8	X9	Y9	Z9	X10	Y10	Z10	X11	Y11	Z11	X12	Y12	Z12	X13	Y13	Z13	X14	Y14	Z14	X15	Y15	Z15	X16	Y16	Z16	X17	Y17	Z17	X18	Y18	Z18	X19	Y19	Z19	X20	Y20	Z20	X21	Y21	Z21	X22	Y22	Z22	X23	Y23	Z23	X24	Y24	Z24	X25	Y25	Z25	X26	Y26	Z26	X27	Y27	Z27	X28	Y28	Z28	X29	Y29	Z29	X30	Y30	Z30	X31	Y31	Z31	X32	Y32	Z32	X33	Y33	Z33	

89	9.218285714286	692.416068891586	962.704714732130	348.552728816735	477.495502666964	1004.525184821864	503.511217374975	645.700123493838	1435.144302405282	321.608070580790	743.279097056200	1369.686875068425	488.049637005557	647.857804845033	1442.586012158416	657.779514219259	636.504426124214	1498.086359639760	471.490541081351	706.223309759777	944.279394430758	622.669025192054	758.959122149811	747.041468570187	585.478163754617	684.959504112902	633.684709003557	645.554272783513	762.066996484716	585.473663940072	561.980123918576	767.697157912329	495.016692670894	565.531872967163	722.366484065541	741.083177277342	366.134834094769	625.267254080349	634.602867495716	300.860393810647	705.574149570933	544.346542214962	355.596660290650	695.437476365865	460.831604695047	351.956806282437	631.409244720035	403.478334557821	346.728585983894	496.597812229351	347.341811293387	295.903967284346	492.908792832743	218.935730596737	354.777693707441	740.191409024723	406.497123527318	573.564155915913	673.920524597554	302.358986750198	638.204842983878	712.144528864897	207.827362305813	572.966210992057	577.484858995415	43.175853159217	549.698487610649	749.619764255071	97.703227517578	578.358377204418	663.606331737477	36.716087832086	621.139121094542	870.986088183007	43.858001875119	602.203515889990	306.829405489733	132.806404726748	387.358933947103	373.792693394305	86.240516767220	316.900511370716	474.299633714317	112.186499166898	340.273740814238	567.100438216852	32.825353521757	334.528692008624	643.227719266419	1078.272557302201	208.636150213355	738.851466938792	835.963719461779	196.311629146597	582.639172492429	1111.995743785973	789.092103124811	759.401852281031	922.186193256503	793.837302706839	
90	9.232357142857	691.572873705999	962.779596313620	351.192483420767	477.806499956811	1004.811480738229	507.862392686897	644.338233492030	1435.289097365246	324.551997029983	743.681369633895	1369.772232222320	490.004978486404	649.994782505380	1442.819456700202	660.667148375614	636.643696253819	1498.232879781494	474.617067745412	707.551876645223	944.181887685482	625.086878545609	758.255257971910	745.947558724409	588.763171376446	682.562176317430	633.425712399894	648.358953295221	759.299767919543	584.543979599608	564.950375098995	763.641821554807	494.162457585929	568.146780292553	726.898310897900	743.133346943771	368.974960589310	634.215919125146	634.469828504423	302.702356784387	717.056422538490	545.823154538307	357.632162965555	707.918500477728	461.040923980091	353.051347775997	641.864366660426	403.941146848614	347.751832851948	505.232720765996	352.842589738714	296.666201060474	497.233034245469	224.573877601884	354.837366463197	735.654375309189	405.811119196901	575.717804707534	668.464109042637	301.856451854470	639.594513265251	706.174405599501	207.366286433691	574.041953424891	570.323010233711	43.232470914444	549.868710651859	742.676400795536	97.477861686738	578.685382658346	656.432221501290	36.621997406019	621.314201047993	863.938626610954	43.128143669627	602.355728713333	308.249468367212	148.244449436917	386.895428641958	372.244352160046	97.443678455464	316.563726377088	474.090556943068	117.181668834687	339.776307953867	560.662676771303	31.849919122235	334.318349976500	635.583339252669	1078.513214473059	211.870167946523	719.308490967960	832.003279049720	198.635182982149	590.739222805214	1113.099833910074	796.102888256535	779.330190389727	935.633393431206	798.867681328623	
91	9.246428571429	690.534972462630	962.721344679138	353.605105224792	477.900712823598	1005.010503936227	512.029178152490	642.823406596293	1435.374902294846	327.439345620754	743.997883409216	1369.697112010014	491.815190256671	652.186357033677	1442.864906159869	663.465887741074	636.816571604643	1498.263144309639	477.691320335683	708.657046702087	943.993600850381	627.295881416676	757.338720640695	744.863483798035	591.906696894479	680.037294760171	633.185535309740	651.078401436810	756.379826814988	583.625918377131	567.840715240623	759.425600336869	493.347736907747	570.761406154160	731.427150142137	745.446439144320	371.894522240076	643.477540234217	634.603208604894	304.497471312017	728.751244490088	547.785067605441	359.823818045160	720.782348463900	461.788645991852	354.474005329516	652.901659093023	404.791107076493	349.004493644024	514.661256603639	358.635355950455	297.602948163075	502.361848963415	230.693290990315	355.262885883098	731.001149906607	405.146367771543	577.881880923673	662.888604389236	301.364913093601	640.981336972742	700.153380201059	206.915853716271	575.164686963020	563.135423219552	43.285596713309	550.066501183217	735.716806684553	97.250935060400	579.066036468361	649.237886658477	36.525401562443	621.512484723090	856.867229207260	42.412987806680	602.529999096299	310.909523074717	164.129852423298	386.905986043603	371.814913654100	109.535899267996	316.508420520878	474.741313962275	123.042435828461	339.599602937668	555.024725159597	31.068962672166	333.938133101696	627.313111020006	1078.830411950975	214.969823298699	700.094342545845	829.054475052850	201.250888750167	599.316356189340	1114.127165000842	803.035694831646	798.690204881093	949.546273071355	803.644758885360	
92	9.260500000000	689.298408981644	962.596176183791	355.781597245446	477.781258562719	1005.172630862041	515.981894790201	641.180683525052	1435.458762328999	330.260027429914	744.226950784575	1369.511105310574	493.470688501802	654.422812559988	1442.769782761828	666.158865429933	637.052859886137	1498.232204052675	480.685107009100	709.521983164973	943.780719661581	629.291345268872	756.174159320668	743.836653092364	594.836108891326	677.368291467081	632.990408324348	653.655495636099	753.267995967945	582.747945537138	570.574518941029	755.027169483905	492.602946865046	573.283893355903	735.799558411550	748.071411491818	374.843093247930	652.767388252022	635.114152883249	306.227775096065	740.379264592475	550.316682909594	362.060657362399	733.775564541384	463.173554780708	356.096222984485	664.299355832028	406.106895557823	350.406855905447	524.642103039637	364.611243269147	298.737361775115	508.269158321863	237.108820300676	356.048911597223	726.211385910581	404.539307827136	579.980597574172	657.206143385048	300.923938126082	642.329840356300	694.082908031656	206.513327381161	576.294919336966	555.953068748599	43.344702206058	550.288755411811	728.757976773109	97.050421009942	579.489103336678	642.054867846622	36.436702874959	621.725918565673	849.793794387270	41.761182199883	602.729336993827	314.828368289797	179.783472953497	387.502146131846	372.673074817086	121.992231519274	316.809326865391	476.430892111194	129.556792044724	339.751080571541	550.665665387060	30.608878378744	333.367971389463	618.431341393998	1079.298137575306	217.971703785255	681.317811418029	827.045984612045	204.157795447349	608.388616528436	1115.096931999013	809.778687296190	817.412829398690	963.755926431642	808.105943912577	
